<?xml version="1.0" encoding="UTF-8"?>
<svg version="1.1" xmlns="http://www.w3.org/2000/svg" width="663" height="190">
<path d="M0 0 C218.79 0 437.58 0 663 0 C663 62.7 663 125.4 663 190 C444.21 190 225.42 190 0 190 C0 127.3 0 64.6 0 0 Z " fill="#FDFEFD" transform="translate(0,0)"/>
<path d="M0 0 C16.55620299 0.40628719 26.11540977 4.25571396 38 16 C39.80235759 18.11844269 41.42024548 20.21956745 42.94921875 22.5390625 C43.94934312 24.16841576 43.94934312 24.16841576 46 25 C46.144375 25.61875 46.28875 26.2375 46.4375 26.875 C46.81075117 29.07156286 46.81075117 29.07156286 48.4609375 30.30859375 C50.46914019 32.51557793 50.69472704 34.26876786 51.1875 37.1875 C51.34605469 38.08855469 51.50460938 38.98960938 51.66796875 39.91796875 C51.77753906 40.60503906 51.88710937 41.29210937 52 42 C52.66 42 53.32 42 54 42 C56.05565288 50.80994091 55.20532329 60.11074073 54 69 C53.34 69 52.68 69 52 69 C51.92523438 69.60585937 51.85046875 70.21171875 51.7734375 70.8359375 C50.67717326 77.82193508 48.27597061 83.34222718 44 89 C41.08235 90.9451 39.37462715 91.45276317 36 92 C36 91.34 36 90.68 36 90 C32.56206661 90.18129815 32.56206661 90.18129815 29 91 C26.23254771 95.04405125 26.61357927 99.29574765 27 104 C27.4333259 106.92511453 27.4333259 106.92511453 29 109 C32.02982306 110.37189827 32.02982306 110.37189827 35 111 C35.495 109.515 35.495 109.515 36 108 C36.33 108.99 36.66 109.98 37 111 C34.83530323 112.92417491 33.36405057 113.92718989 30.5 114.5 C28 114 28 114 25.8125 111.75 C21.87247648 105.77203328 21.14814563 101.15765436 22 94 C24.05501504 89.96336331 26.69367451 87.07015938 30 84 C27.4750398 84.34121084 25.48434216 84.69504383 23.3125 86.0625 C18.48238369 93.1926717 19.80739709 102.78227604 20 111 C17.525 111.495 17.525 111.495 15 112 C15 112.66 15 113.32 15 114 C11.43954823 115.18681726 8.56191663 115.09689832 4.8125 115.0625 C2.90404297 115.04896484 2.90404297 115.04896484 0.95703125 115.03515625 C-0.01878906 115.02355469 -0.99460938 115.01195312 -2 115 C-2 114.34 -2 113.68 -2 113 C-1.40832031 112.78085938 -0.81664062 112.56171875 -0.20703125 112.3359375 C5.47826767 110.05439829 8.34475638 107.87365816 12 103 C12.66 103 13.32 103 14 103 C14.73833975 97.69899109 15.15573307 92.52207487 15.17700195 87.16625977 C15.18357315 86.42852325 15.19014435 85.69078674 15.19691467 84.93069458 C15.2164388 82.51759708 15.22825939 80.10456098 15.23828125 77.69140625 C15.24235678 76.86046888 15.2464323 76.02953152 15.25063133 75.17341423 C15.27139716 70.77991875 15.28574283 66.38645367 15.29516602 61.99291992 C15.30624644 57.47617366 15.34069225 52.95991779 15.38033772 48.44334507 C15.40656339 44.94902169 15.41486281 41.45481466 15.41844749 37.96040154 C15.42329336 36.29594526 15.43484978 34.63149348 15.45348549 32.96713448 C15.7903371 18.82561641 15.7903371 18.82561641 8.96484375 6.9140625 C7.96130859 6.27597656 7.96130859 6.27597656 6.9375 5.625 C4.3361538 3.91739846 2.13505267 2.27472902 0 0 Z " fill="#E0E7EF" transform="translate(135,51)"/>
<path d="M0 0 C0.61875 0.3403125 1.2375 0.680625 1.875 1.03125 C7.63450544 4.58294502 9.00774999 8.83030968 10.51904297 15.18115234 C11.4351109 20.55014743 11.22538629 26.02263249 11.24023438 31.45703125 C11.25000172 33.62538137 11.28109204 35.79280688 11.3125 37.9609375 C11.31902521 39.34114024 11.32427757 40.7213497 11.328125 42.1015625 C11.3374707 43.35275879 11.34681641 44.60395508 11.35644531 45.89306641 C11 49 11 49 9.66699219 50.93115234 C8 52 8 52 5 52 C4.98541748 50.91058105 4.97083496 49.82116211 4.95581055 48.69873047 C4.89763928 44.63932215 4.82040818 40.58045763 4.73754883 36.52148438 C4.7043878 34.76799373 4.67632858 33.01439862 4.65356445 31.26074219 C4.6198553 28.73327302 4.56753308 26.20675362 4.51171875 23.6796875 C4.50532883 22.90132538 4.4989389 22.12296326 4.49235535 21.3210144 C4.34501664 15.81044938 3.20470876 11.70864218 -0.3671875 7.3203125 C-5.22580131 3.46866529 -9.894283 3.32122449 -15.96875 3.5859375 C-19.99862185 4.13640969 -22.11734905 5.11734905 -25 8 C-29.27796207 13.98979404 -29.58188341 18.73926487 -29.54589844 25.98413086 C-29.55623611 27.06779938 -29.56657379 28.1514679 -29.57722473 29.26797485 C-29.60661598 32.83375016 -29.60815119 36.39895691 -29.609375 39.96484375 C-29.62435904 42.44349752 -29.64108666 44.92214131 -29.65948486 47.40077209 C-29.7031449 53.91253116 -29.72315473 60.42415552 -29.73822021 66.93603516 C-29.75565773 73.58569332 -29.79976558 80.23521268 -29.83984375 86.88476562 C-29.91513149 99.9231278 -29.96619272 112.96146765 -30 126 C-29.34 126 -28.68 126 -28 126 C-27.97301578 128.43757413 -27.95316901 130.87484915 -27.9375 133.3125 C-27.92912109 134.00279297 -27.92074219 134.69308594 -27.91210938 135.40429688 C-27.89692094 138.5483025 -27.99806673 140.99420019 -29 144 C-24.05 144 -19.1 144 -14 144 C-15.12011211 147.36033634 -15.43493086 147.60709455 -18.41210938 149.16308594 C-23.40934734 151.4940757 -27.97131238 151.51243396 -33.40625 151.390625 C-34.3715564 151.38496521 -35.33686279 151.37930542 -36.3314209 151.37347412 C-39.38813717 151.35123963 -42.44364328 151.30106775 -45.5 151.25 C-47.5833163 151.22991828 -49.66665113 151.21167045 -51.75 151.1953125 C-56.8337934 151.15141725 -61.91669215 151.08248003 -67 151 C-67 150.34 -67 149.68 -67 149 C-66.22914062 148.72285156 -65.45828125 148.44570312 -64.6640625 148.16015625 C-63.66117188 147.79792969 -62.65828125 147.43570313 -61.625 147.0625 C-60.12839844 146.52302734 -60.12839844 146.52302734 -58.6015625 145.97265625 C-56.06495835 145.07650708 -56.06495835 145.07650708 -54 144 C-52.62451844 143.91691362 -51.24514204 143.89263984 -49.8671875 143.90234375 C-49.06152344 143.90556641 -48.25585938 143.90878906 -47.42578125 143.91210938 C-46.58402344 143.92048828 -45.74226563 143.92886719 -44.875 143.9375 C-43.60076172 143.94426758 -43.60076172 143.94426758 -42.30078125 143.95117188 C-40.20049091 143.96297126 -38.1002367 143.98090694 -36 144 C-36 143.01 -36 142.02 -36 141 C-36.66 141 -37.32 141 -38 141 C-38 136.05 -38 131.1 -38 126 C-37.34 126 -36.68 126 -36 126 C-36.00092179 125.42039363 -36.00184359 124.84078726 -36.00279331 124.24361706 C-36.02486731 110.14752342 -36.04142073 96.05143237 -36.05181217 81.95532513 C-36.05697082 75.13858609 -36.06400534 68.32185859 -36.07543945 61.50512695 C-36.08646225 54.93048439 -36.0922793 48.35585069 -36.09487724 41.7811985 C-36.0967294 39.2689069 -36.10034603 36.75661597 -36.10573006 34.24432945 C-36.11295573 30.73407939 -36.11399029 27.22387932 -36.11352539 23.71362305 C-36.11712067 22.66777542 -36.12071594 21.6219278 -36.12442017 20.54438782 C-36.1230455 19.58946442 -36.12167084 18.63454102 -36.12025452 17.65068054 C-36.12117631 16.82014506 -36.1220981 15.98960958 -36.12304783 15.13390636 C-36 13 -36 13 -35 10 C-34.34 10 -33.68 10 -33 10 C-32.79375 9.113125 -32.5875 8.22625 -32.375 7.3125 C-30.72854107 3.34603077 -28.59138822 1.20305064 -25 -1 C-16.84346751 -4.3585722 -7.72598561 -4.30872274 0 0 Z " fill="#77BD30" transform="translate(87,10)"/>
<path d="M0 0 C4.01542792 0.83081483 6.01605191 2.47465363 9.0625 5.25 C9.91972656 6.01828125 10.77695313 6.7865625 11.66015625 7.578125 C13.92333923 9.92065163 15.37323948 12.20023412 17 15 C17.66 15.33 18.32 15.66 19 16 C19.144375 16.61875 19.28875 17.2375 19.4375 17.875 C19.81075117 20.07156286 19.81075117 20.07156286 21.4609375 21.30859375 C23.46914019 23.51557793 23.69472704 25.26876786 24.1875 28.1875 C24.34605469 29.08855469 24.50460938 29.98960938 24.66796875 30.91796875 C24.77753906 31.60503906 24.88710937 32.29210937 25 33 C25.66 33 26.32 33 27 33 C29.05565288 41.80994091 28.20532329 51.11074073 27 60 C26.34 60 25.68 60 25 60 C24.92523438 60.60585937 24.85046875 61.21171875 24.7734375 61.8359375 C23.67717326 68.82193508 21.27597061 74.34222718 17 80 C15.515 80.99 15.515 80.99 14 82 C13.46375 81.05125 12.9275 80.1025 12.375 79.125 C9.67357941 75.57049923 8.17104934 75.17703584 4 74 C3.99413376 73.22040924 3.98826752 72.44081848 3.98222351 71.63760376 C3.9240678 64.25300473 3.85186249 56.86873433 3.76428509 49.48443031 C3.71975633 45.68902376 3.68046304 41.89372023 3.65356445 38.09814453 C3.62735509 34.42801988 3.586832 30.75829549 3.53681374 27.08842087 C3.52026313 25.69561151 3.50867595 24.30273312 3.50238609 22.90983963 C3.46199359 14.77934094 2.93258879 7.63164361 0 0 Z " fill="#1F5D9A" transform="translate(162,60)"/>
<path d="M0 0 C0.01458252 0.88260498 0.02916504 1.76520996 0.04418945 2.67456055 C0.10542067 5.96438643 0.1796033 9.2533993 0.26245117 12.54272461 C0.29560557 13.96351202 0.32366692 15.38442813 0.34643555 16.80541992 C0.38015847 18.8539082 0.43247745 20.9012272 0.48828125 22.94921875 C0.51446533 24.17987061 0.54064941 25.41052246 0.56762695 26.6784668 C1.03391383 30.26052948 1.83380797 32.13851842 4 35 C5.04414062 35.74507812 6.08828125 36.49015625 7.1640625 37.2578125 C10.08277878 40.07544769 10.40394974 42.644855 10.56854248 46.6317749 C10.59858064 50.38401508 10.50030887 54.12519132 10.375 57.875 C10.34487816 59.43744891 10.31750623 60.99995341 10.29296875 62.5625 C10.22710801 66.37637919 10.12371817 70.18757688 10 74 C9.34 74 8.68 74 8 74 C7.67 71.03 7.34 68.06 7 65 C6.0406581 66.27007214 5.08256706 67.54108919 4.125 68.8125 C3.59132813 69.52019531 3.05765625 70.22789062 2.5078125 70.95703125 C1.29185219 72.60456297 0.13583859 74.29624211 -1 76 C-7.10110769 69.68784771 -7.10110769 69.68784771 -8.1875 65.125 C-8.455625 64.09375 -8.72375 63.0625 -9 62 C-9.99 61.67 -10.98 61.34 -12 61 C-12.66015625 59.0390625 -12.66015625 59.0390625 -13.0625 56.625 C-13.63170911 53.29648197 -14.05951616 51.91072575 -16 49 C-16.22705078 46.45629883 -16.22705078 46.45629883 -16.1953125 43.45703125 C-16.18886719 42.38388672 -16.18242188 41.31074219 -16.17578125 40.20507812 C-16.15064453 38.52575195 -16.15064453 38.52575195 -16.125 36.8125 C-16.11597656 35.68134766 -16.10695313 34.55019531 -16.09765625 33.38476562 C-16.07406862 30.58963172 -16.041153 27.79492155 -16 25 C-15.34 25 -14.68 25 -14 25 C-13.92523438 24.32195312 -13.85046875 23.64390625 -13.7734375 22.9453125 C-12.85148877 16.41936171 -8.63576095 0 0 0 Z " fill="#70BA25" transform="translate(92,70)"/>
<path d="M0 0 C1.85625 -0.00386719 1.85625 -0.00386719 3.75 -0.0078125 C7.03071686 0.12625526 9.08688152 0.35236128 11.625 2.5 C14.08131492 5.40291764 14.12080615 8.15843389 14.09765625 11.79296875 C14.09515869 12.59758545 14.09266113 13.40220215 14.09008789 14.23120117 C14.08098389 15.24802979 14.07187988 16.2648584 14.0625 17.3125 C14.041875 20.550625 14.02125 23.78875 14 27.125 C6.41 27.125 -1.18 27.125 -9 27.125 C-9 26.465 -9 25.805 -9 25.125 C-11.475 24.135 -11.475 24.135 -14 23.125 C-14.48945148 15.78322785 -14.48945148 15.78322785 -12.1875 12.6875 C-8.4076813 9.9876295 -5.32801624 10.01394606 -0.8125 10.0625 C0.81751953 10.07603516 0.81751953 10.07603516 2.48046875 10.08984375 C3.31191406 10.10144531 4.14335937 10.11304687 5 10.125 C4.18468266 8.11886866 4.18468266 8.11886866 3 6.125 C0.44480079 5.31328772 0.44480079 5.31328772 -2 5.125 C-2.33 6.115 -2.66 7.105 -3 8.125 C-5.64 8.455 -8.28 8.785 -11 9.125 C-11.625 6.8125 -11.625 6.8125 -12 4.125 C-8.79265052 -0.68602421 -5.4293171 -0.01131108 0 0 Z " fill="#336CA3" transform="translate(346,88.875)"/>
<path d="M0 0 C3.5 0.125 3.5 0.125 4.5 1.125 C4.57325168 3.98767567 4.59238205 6.825719 4.5625 9.6875 C4.55798828 10.49380859 4.55347656 11.30011719 4.54882812 12.13085938 C4.53700518 14.12893756 4.51906914 16.12697783 4.5 18.125 C8.21297112 16.88734296 8.36547615 15.89852648 10.1875 12.5625 C12.86588915 8.2986664 12.86588915 8.2986664 15.66796875 7.53125 C17.875 7.5625 17.875 7.5625 21.5 8.125 C20.91892368 11.8852985 19.84800504 14.65535032 17.9375 17.9375 C17.48246094 18.72769531 17.02742188 19.51789063 16.55859375 20.33203125 C16.20925781 20.92371094 15.85992187 21.51539062 15.5 22.125 C16.0775 22.785 16.655 23.445 17.25 24.125 C19.85741329 27.60155106 21.66930498 31.20069099 23.5 35.125 C20.02147456 35.68183905 16.95330304 35.90960697 13.5 35.125 C11.41906424 32.96254304 10.14438527 30.8436931 8.75390625 28.19140625 C7.60876086 25.8018117 7.60876086 25.8018117 4.5 25.125 C4.5 28.425 4.5 31.725 4.5 35.125 C1.53 35.125 -1.44 35.125 -4.5 35.125 C-4.5246519 30.30119198 -4.54283693 25.47742033 -4.55493164 20.65356445 C-4.55997174 19.01130536 -4.56680378 17.36905077 -4.57543945 15.72680664 C-4.58751926 13.37124521 -4.59323139 11.01574291 -4.59765625 8.66015625 C-4.60281754 7.92160904 -4.60797882 7.18306183 -4.61329651 6.4221344 C-4.6134925 4.65601912 -4.56194719 2.89002854 -4.5 1.125 C-3.5 0.125 -3.5 0.125 0 0 Z " fill="#326BA3" transform="translate(369.5,80.875)"/>
<path d="M0 0 C3.5 0.125 3.5 0.125 4.5 1.125 C4.95459858 3.77963121 5.20243238 6.44689138 5.5 9.125 C6.16 8.795 6.82 8.465 7.5 8.125 C9.671875 7.8515625 9.671875 7.8515625 12.25 7.75 C13.09046875 7.70101562 13.9309375 7.65203125 14.796875 7.6015625 C17.862136 8.1951246 19.99600319 9.24046911 22.32226562 11.34667969 C24.80628405 15.09742392 24.10143537 19.61490681 23.875 23.9375 C23.84792969 24.91654297 23.82085937 25.89558594 23.79296875 26.90429688 C23.72245648 29.31346621 23.62398568 31.71808819 23.5 34.125 C20.86 34.125 18.22 34.125 15.5 34.125 C15.43941406 32.83722656 15.37882812 31.54945312 15.31640625 30.22265625 C15.23201753 28.54425841 15.1473687 26.86587364 15.0625 25.1875 C15.02318359 24.33736328 14.98386719 23.48722656 14.94335938 22.61132812 C14.90146484 21.80244141 14.85957031 20.99355469 14.81640625 20.16015625 C14.77974854 19.4112915 14.74309082 18.66242676 14.70532227 17.89086914 C14.68228937 16.10038674 14.68228937 16.10038674 13.5 15.125 C10 14.95833333 10 14.95833333 6.5 15.125 C4.95049732 16.67450268 5.28344807 18.22490594 5.18359375 20.37890625 C5.14169922 21.23291016 5.09980469 22.08691406 5.05664062 22.96679688 C5.01732422 23.86462891 4.97800781 24.76246094 4.9375 25.6875 C4.89431641 26.58919922 4.85113281 27.49089844 4.80664062 28.41992188 C4.70022016 30.65475156 4.59957519 32.88985486 4.5 35.125 C1.53 35.125 -1.44 35.125 -4.5 35.125 C-4.5246519 30.30119198 -4.54283693 25.47742033 -4.55493164 20.65356445 C-4.55997174 19.01130536 -4.56680378 17.36905077 -4.57543945 15.72680664 C-4.58751926 13.37124521 -4.59323139 11.01574291 -4.59765625 8.66015625 C-4.60281754 7.92160904 -4.60797882 7.18306183 -4.61329651 6.4221344 C-4.6134925 4.65601912 -4.56194719 2.89002854 -4.5 1.125 C-3.5 0.125 -3.5 0.125 0 0 Z " fill="#2C66A0" transform="translate(304.5,80.875)"/>
<path d="M0 0 C0.70189453 0.01353516 1.40378906 0.02707031 2.12695312 0.04101562 C3.85579829 0.07629818 5.58424765 0.13010417 7.3125 0.1875 C7.3125 0.8475 7.3125 1.5075 7.3125 2.1875 C8.116875 2.31125 8.92125 2.435 9.75 2.5625 C10.595625 2.76875 11.44125 2.975 12.3125 3.1875 C13.5388757 5.64025141 13.42665314 7.2380781 13.41015625 9.9765625 C13.40693359 10.91757813 13.40371094 11.85859375 13.40039062 12.828125 C13.39201172 13.81296875 13.38363281 14.7978125 13.375 15.8125 C13.37048828 16.80507812 13.36597656 17.79765625 13.36132812 18.8203125 C13.34952145 21.2761016 13.333054 23.73177104 13.3125 26.1875 C9.75015572 26.27491124 6.18808892 26.32802896 2.625 26.375 C1.61759766 26.40013672 0.61019531 26.42527344 -0.42773438 26.45117188 C-10.19331948 26.54786084 -10.19331948 26.54786084 -13.6875 23.1875 C-14.70632442 20.09687619 -14.44767544 17.33031488 -13.6875 14.1875 C-11.43751979 11.5518089 -10.8884156 11.02326304 -7.6875 10.1875 C-3.33152152 9.88263318 0.95448444 9.95472766 5.3125 10.1875 C4.6525 8.5375 3.9925 6.8875 3.3125 5.1875 C-1.01979715 6.0479139 -1.01979715 6.0479139 -4.6875 8.1875 C-7.02047433 8.22842937 -9.35455225 8.22991723 -11.6875 8.1875 C-11.34740244 5.67077805 -11.00711916 3.68572987 -9.625 1.53125 C-6.62626542 -0.54851753 -3.50665775 -0.12769342 0 0 Z " fill="#27639E" transform="translate(236.6875,88.8125)"/>
<path d="M0 0 C1 1 1 1 1.09765625 4.81640625 C1.09098089 6.39846682 1.07901875 7.98051159 1.0625 9.5625 C1.05798828 10.36880859 1.05347656 11.17511719 1.04882812 12.00585938 C1.03700518 14.00393756 1.01906914 16.00197783 1 18 C4.55222279 16.54548902 4.91440284 16.18765531 6.625 12.4375 C7.07875 11.303125 7.5325 10.16875 8 9 C10.95664519 7.5216774 13.74229737 7.93967217 17 8 C16.09914675 13.79119947 15.33672899 16.94305998 11 21 C11.42152344 21.60328125 11.84304688 22.2065625 12.27734375 22.828125 C12.82519531 23.62734375 13.37304688 24.4265625 13.9375 25.25 C14.48277344 26.03890625 15.02804687 26.8278125 15.58984375 27.640625 C16.89622441 29.82636993 17.54980511 31.5153801 18 34 C12.89486553 34.70415648 12.89486553 34.70415648 10 34 C8.07700083 32.09405625 6.74142042 30.15010137 5.32421875 27.84765625 C4.05239835 25.69142249 4.05239835 25.69142249 1 25 C1.01160156 25.63808594 1.02320313 26.27617188 1.03515625 26.93359375 C1.04417969 27.75988281 1.05320312 28.58617188 1.0625 29.4375 C1.07410156 30.26121094 1.08570313 31.08492187 1.09765625 31.93359375 C1 34 1 34 0 35 C-2.64 35 -5.28 35 -8 35 C-8 23.78 -8 12.56 -8 1 C-5.26752652 -0.36623674 -3.01801098 -0.128426 0 0 Z " fill="#2A659F" transform="translate(264,81)"/>
<path d="M0 0 C3.46679688 0.04882812 3.46679688 0.04882812 6.93359375 0.09765625 C6.93359375 3.06765625 6.93359375 6.03765625 6.93359375 9.09765625 C9.24359375 9.09765625 11.55359375 9.09765625 13.93359375 9.09765625 C13.93359375 11.40765625 13.93359375 13.71765625 13.93359375 16.09765625 C11.29359375 16.09765625 8.65359375 16.09765625 5.93359375 16.09765625 C6.07396896 17.91058714 6.22104264 19.72300055 6.37109375 21.53515625 C6.49291016 23.04916016 6.49291016 23.04916016 6.6171875 24.59375 C6.66570843 27.03406404 6.66570843 27.03406404 7.93359375 28.09765625 C10.26177339 28.46526356 12.59543225 28.80007206 14.93359375 29.09765625 C15.31578142 30.75380282 15.64754477 32.42222649 15.93359375 34.09765625 C14.06773421 35.96351579 11.12123004 35.35731688 8.62109375 35.41015625 C6.89439453 35.46623047 6.89439453 35.46623047 5.1328125 35.5234375 C1.93359375 35.09765625 1.93359375 35.09765625 -0.421875 33.265625 C-3.23675864 29.55479264 -3.19462509 26.45047206 -3.19921875 21.93359375 C-3.20050781 20.72960937 -3.20179688 19.525625 -3.203125 18.28515625 C-3.19925781 17.02703125 -3.19539062 15.76890625 -3.19140625 14.47265625 C-3.19527344 13.20679687 -3.19914063 11.9409375 -3.203125 10.63671875 C-3.20183594 9.4353125 -3.20054687 8.23390625 -3.19921875 6.99609375 C-3.19809082 5.88927246 -3.19696289 4.78245117 -3.19580078 3.64208984 C-3.01783887 0.14261998 -3.01783887 0.14261998 0 0 Z " fill="#346DA4" transform="translate(205.06640625,80.90234375)"/>
<path d="M0 0 C3.30743016 2.56988996 4.83711761 4.00591602 5.5234375 8.19458008 C5.47445312 9.37431396 5.42546875 10.55404785 5.375 11.76953125 C5.32730469 13.07083984 5.27960938 14.37214844 5.23046875 15.71289062 C5.19228027 16.38682861 5.1540918 17.0607666 5.11474609 17.75512695 C5.0009398 19.79564966 4.928845 21.83437131 4.86328125 23.87695312 C4.55363724 30.84394344 3.98437227 36.66631864 1 43 C0.34 43 -0.32 43 -1 43 C-1.33 43.99 -1.66 44.98 -2 46 C-6.78144714 50.06423007 -10.95513425 50.7313393 -17 51 C-16.67 50.34 -16.34 49.68 -16 49 C-15.13375 48.7525 -14.2675 48.505 -13.375 48.25 C-9.15646899 46.68758111 -5.95673566 44.40472591 -3 41 C-1.74416314 37.34891034 -1.79350155 33.65919685 -1.68359375 29.828125 C-1.66281265 29.1457074 -1.64203156 28.46328979 -1.62062073 27.76019287 C-1.55547948 25.59022644 -1.49640596 23.42014376 -1.4375 21.25 C-1.39428103 19.77472779 -1.35066568 18.29946713 -1.30664062 16.82421875 C-1.19983482 13.21626834 -1.09846847 9.60818867 -1 6 C-2.65 6.33 -4.3 6.66 -6 7 C-6.33 10.63 -6.66 14.26 -7 18 C-11 17 -11 17 -12.75 15.4375 C-14.5382515 11.95040957 -14.72585564 8.84230105 -14 5 C-10.28301766 0.00129962 -6.01503669 -0.62224518 0 0 Z " fill="#3970A6" transform="translate(131,62)"/>
<path d="M0 0 C4.04393484 3.09242076 4.04393484 3.09242076 4.4609375 5.83203125 C4.56658725 12.87886981 4.56658725 12.87886981 2.3125 16.6875 C-1.33965993 19.92227023 -4.96914181 20.01114426 -9.6484375 19.98828125 C-13.18187494 19.41177304 -14.74470568 17.3544396 -16.875 14.625 C-17.205 14.295 -17.535 13.965 -17.875 13.625 C-18.45250191 9.04285372 -18.48077083 5.62765517 -16.0625 1.625 C-11.55095869 -2.49983777 -5.3178247 -2.54330746 0 0 Z " fill="#FBFDF9" transform="translate(613.875,138.375)"/>
<path d="M0 0 C2.97 0 5.94 0 9 0 C9.11651725 4.37477474 9.18736 8.74914827 9.25 13.125 C9.28351563 14.3625 9.31703125 15.6 9.3515625 16.875 C9.46210643 27.15558542 9.46210643 27.15558542 7.171875 30.8046875 C4.27703426 33.73076753 2.59008231 33.97892563 -1.5 34.125 C-5 34 -5 34 -8 33 C-8 31.35 -8 29.7 -8 28 C-5.69 28 -3.38 28 -1 28 C-0.67 18.76 -0.34 9.52 0 0 Z " fill="#2C66A0" transform="translate(286,90)"/>
<path d="M0 0 C1.17046875 0.03609375 2.3409375 0.0721875 3.546875 0.109375 C4.43890625 0.15578125 5.3309375 0.2021875 6.25 0.25 C6.30404449 3.00026417 6.34369306 5.74946203 6.375 8.5 C6.40013672 9.66595703 6.40013672 9.66595703 6.42578125 10.85546875 C6.48866553 18.21292928 6.48866553 18.21292928 4.25 21.25 C1.88386544 22.43306728 0.38219264 22.38354608 -2.25 22.375 C-3.0440625 22.37757813 -3.838125 22.38015625 -4.65625 22.3828125 C-6.75 22.25 -6.75 22.25 -8.75 21.25 C-8.75 20.59 -8.75 19.93 -8.75 19.25 C-5.45 19.25 -2.15 19.25 1.25 19.25 C1.91 17.93 2.57 16.61 3.25 15.25 C2.26 15.745 2.26 15.745 1.25 16.25 C-5.22058824 16.60294118 -5.22058824 16.60294118 -8.75 14.25 C-8.75 13.59 -8.75 12.93 -8.75 12.25 C-9.41 12.25 -10.07 12.25 -10.75 12.25 C-11.2374552 4.93817204 -11.2374552 4.93817204 -9.15625 2 C-5.95060272 -0.33137984 -3.91995359 -0.15679814 0 0 Z " fill="#82C240" transform="translate(578.75,141.75)"/>
<path d="M0 0 C23.1 0 46.2 0 70 0 C70 1.32 70 2.64 70 4 C46.9 4 23.8 4 0 4 C0 2.68 0 1.36 0 0 Z " fill="#336CA3" transform="translate(16,164)"/>
<path d="M0 0 C-1.23697917 1.33463542 -2.47395833 2.66927083 -3.7109375 4.00390625 C-8.08264558 10.77342997 -7.33327412 18.81375322 -7.3125 26.5625 C-7.32861328 27.76841797 -7.34472656 28.97433594 -7.36132812 30.21679688 C-7.36197266 31.38404297 -7.36261719 32.55128906 -7.36328125 33.75390625 C-7.36626221 34.80908447 -7.36924316 35.8642627 -7.37231445 36.95141602 C-6.93325802 40.5464965 -5.90812052 42.93205787 -4 46 C-0.93638223 47.43968727 -0.93638223 47.43968727 2 48 C2 48.66 2 49.32 2 50 C-5.50430792 50.28862723 -5.50430792 50.28862723 -9 48 C-14.0057057 40.8097545 -13.64933581 31.75844824 -13.57641602 23.36621094 C-13.5623899 21.10726862 -13.59691056 18.85235413 -13.63476562 16.59375 C-13.63571563 15.14843649 -13.63386436 13.70311782 -13.62890625 12.2578125 C-13.62963135 10.9598877 -13.63035645 9.66196289 -13.63110352 8.32470703 C-13 5 -13 5 -10.62475586 2.62841797 C-4.15548909 -1.38516303 -4.15548909 -1.38516303 0 0 Z " fill="#7EC03B" transform="translate(111,57)"/>
<path d="M0 0 C1.32 0 2.64 0 4 0 C4.67260351 1.76858691 5.33788395 3.53996016 6 5.3125 C6.37125 6.29863281 6.7425 7.28476563 7.125 8.30078125 C8 11 8 11 8 14 C8.66 14 9.32 14 10 14 C10.1546875 12.205625 10.1546875 12.205625 10.3125 10.375 C10.78891352 6.4375824 12.01130716 3.45859625 14 0 C15.32 0 16.64 0 18 0 C18.26554687 1.07121094 18.53109375 2.14242187 18.8046875 3.24609375 C19.16103168 4.64333805 19.51782582 6.04046764 19.875 7.4375 C20.04902344 8.14455078 20.22304688 8.85160156 20.40234375 9.58007812 C20.87351608 11.40368957 21.43123057 13.20443229 22 15 C22.66 15.33 23.32 15.66 24 16 C24.13277344 15.09636719 24.26554687 14.19273437 24.40234375 13.26171875 C24.66724609 11.49248047 24.66724609 11.49248047 24.9375 9.6875 C25.11152344 8.51574219 25.28554688 7.34398437 25.46484375 6.13671875 C26 3 26 3 27 0 C28.32 0.33 29.64 0.66 31 1 C30.3808361 3.584859 29.75492318 6.16776172 29.125 8.75 C28.86396484 9.84441406 28.86396484 9.84441406 28.59765625 10.9609375 C27.72091402 14.53285028 26.87313177 17.79373841 25 21 C23.35 20.67 21.7 20.34 20 20 C20 19.01 20 18.02 20 17 C19.34 17 18.68 17 18 17 C17.34 13.7 16.68 10.4 16 7 C14.68 11.62 13.36 16.24 12 21 C10.02 21 8.04 21 6 21 C5.34 17.04 4.68 13.08 4 9 C3.34 9 2.68 9 2 9 C1.34 6.03 0.68 3.06 0 0 Z " fill="#8FC955" transform="translate(410,137)"/>
<path d="M0 0 C0.99 0 1.98 0 3 0 C3 7.59 3 15.18 3 23 C-8.06976744 23.60822898 -8.06976744 23.60822898 -12.25 20.875 C-14.33592417 17.44812458 -14.81938858 15.9330652 -14 12 C-11.9375 9.125 -11.9375 9.125 -9 7 C-5.53855822 6.64798897 -3.13871188 6.43064406 0 8 C0 5.36 0 2.72 0 0 Z " fill="#92CA59" transform="translate(390,135)"/>
<path d="M0 0 C0.33 0 0.66 0 1 0 C1 25.41 1 50.82 1 77 C1.66 77 2.32 77 3 77 C3.33 81.95 3.66 86.9 4 92 C1.525 92.495 1.525 92.495 -1 93 C-1 93.66 -1 94.32 -1 95 C-4.56045177 96.18681726 -7.43808337 96.09689832 -11.1875 96.0625 C-13.09595703 96.04896484 -13.09595703 96.04896484 -15.04296875 96.03515625 C-16.01878906 96.02355469 -16.99460938 96.01195312 -18 96 C-18 95.34 -18 94.68 -18 94 C-17.40832031 93.78085938 -16.81664062 93.56171875 -16.20703125 93.3359375 C-10.52173233 91.05439829 -7.65524362 88.87365816 -4 84 C-3.34 84 -2.68 84 -2 84 C-1.26169907 78.68484383 -0.83999705 73.48456213 -0.79467773 68.11523438 C-0.78477814 67.3727948 -0.77487854 66.63035522 -0.76467896 65.86541748 C-0.73340327 63.44155938 -0.70844266 61.01768176 -0.68359375 58.59375 C-0.66299481 56.9012403 -0.64199762 55.2087354 -0.62062073 53.51623535 C-0.56570341 49.08418697 -0.51616169 44.65209453 -0.46777344 40.2199707 C-0.41733539 35.68827441 -0.36176631 31.15664127 -0.30664062 26.625 C-0.19943076 17.75005409 -0.0979049 8.8750531 0 0 Z " fill="#E7EBF2" transform="translate(151,70)"/>
<path d="M0 0 C3.44150865 2.43773529 4.762119 3.85817119 5.625 8 C4.762119 12.14182881 3.44150865 13.56226471 0 16 C-2.80757007 16.40997788 -5.13993414 16.24237846 -8 16 C-8.66 14.68 -9.32 13.36 -10 12 C-10.66 12 -11.32 12 -12 12 C-12.61538462 3.84615385 -12.61538462 3.84615385 -10.5 0.9375 C-6.93578762 -0.39907964 -3.70650423 -0.77799891 0 0 Z " fill="#98CD62" transform="translate(534,142)"/>
<path d="M0 0 C2.76142665 1.01736771 3.68085371 1.36170741 5 4 C5.37453632 7.97008503 5.32747775 10.3586894 3.5 13.9375 C0.45855278 16.44669396 -1.24113553 16.69047708 -5.09375 16.41015625 C-7 16 -7 16 -9.5 14.5 C-11.61897146 10.9683809 -11.79841448 8.01676563 -11 4 C-8.13596605 -0.58245432 -5.13466163 -0.55014232 0 0 Z " fill="#8AC64D" transform="translate(236,142)"/>
<path d="M0 0 C2.5 1.5 2.5 1.5 4 4 C4.791013 8.02098277 4.62153384 10.96411027 2.5 14.5 C-1.25648836 16.75389302 -3.64579381 16.48380069 -8 16 C-10.17476401 14.45661909 -10.81832637 13.36334727 -12 11 C-11.984375 8.90625 -11.984375 8.90625 -11.75 6.5 C-11.68296875 5.7059375 -11.6159375 4.911875 -11.546875 4.09375 C-10.16650672 -1.19108856 -4.45514897 -0.69919843 0 0 Z " fill="#7FC13D" transform="translate(331,142)"/>
<path d="M0 0 C3.53836039 0.72970078 5.00266818 2.53166754 7.0078125 5.4140625 C7.6328125 8.4140625 7.6328125 8.4140625 7.0078125 11.4140625 C4.9453125 14.2890625 4.9453125 14.2890625 2.0078125 16.4140625 C-1.91801564 17.0339301 -3.99301669 17.00331708 -7.4296875 14.9765625 C-9.67414008 11.29566026 -9.85325711 7.62632194 -8.9921875 3.4140625 C-6.52771062 0.0656699 -4.12054354 -0.16725453 0 0 Z " fill="#8FC955" transform="translate(252.9921875,141.5859375)"/>
<path d="M0 0 C2.3671875 0.2109375 2.3671875 0.2109375 5 1 C6.2578125 3.0390625 6.2578125 3.0390625 7.125 5.625 C7.44210937 6.52605469 7.75921875 7.42710937 8.0859375 8.35546875 C8.38757813 9.22816406 8.68921875 10.10085937 9 11 C9.57019118 12.31826251 10.15165855 13.63177356 10.75 14.9375 C12 18 12 18 12 21 C11.34 21 10.68 21 10 21 C9.79632813 20.35546875 9.59265625 19.7109375 9.3828125 19.046875 C8.1332065 16.68846128 8.1332065 16.68846128 5.1796875 16.390625 C4.08914063 16.34421875 2.99859375 16.2978125 1.875 16.25 C0.77929688 16.19328125 -0.31640625 16.1365625 -1.4453125 16.078125 C-2.28835938 16.05234375 -3.13140625 16.0265625 -4 16 C-4.33 17.65 -4.66 19.3 -5 21 C-6.32 20.67 -7.64 20.34 -9 20 C-6.69 14.39 -4.38 8.78 -2 3 C-1.34 3 -0.68 3 0 3 C0 2.01 0 1.02 0 0 Z " fill="#96CC60" transform="translate(294,137)"/>
<path d="M0 0 C6.48979592 0.48979592 6.48979592 0.48979592 8.9375 2.9375 C10 5 10 5 10 7 C8.02 7.99 8.02 7.99 6 9 C6 8.34 6 7.68 6 7 C2.56206661 7.18129815 2.56206661 7.18129815 -1 8 C-3.76745229 12.04405125 -3.38642073 16.29574765 -3 21 C-2.5666741 23.92511453 -2.5666741 23.92511453 -1 26 C2.02982306 27.37189827 2.02982306 27.37189827 5 28 C5.33 27.01 5.66 26.02 6 25 C6.33 25.99 6.66 26.98 7 28 C4.83530323 29.92417491 3.36405057 30.92718989 0.5 31.5 C-2 31 -2 31 -4.1875 28.75 C-8.12752352 22.77203328 -8.85185437 18.15765436 -8 11 C-5.93127695 6.93643686 -3.25968388 4.1432666 0 1 C0 0.67 0 0.34 0 0 Z " fill="#E8EDF3" transform="translate(165,134)"/>
<path d="M0 0 C4.84688036 1.21172009 5.63642279 2.62184629 8.625 6.5 C11.34196441 10.31067195 11.34196441 10.31067195 15 13 C15 8.71 15 4.42 15 0 C15.99 0 16.98 0 18 0 C18 6.93 18 13.86 18 21 C13.30357332 19.82589333 12.96664451 19.02904857 10.4375 15.125 C8.40928379 12.02621087 6.64243946 9.64243946 4 7 C3.67 11.62 3.34 16.24 3 21 C2.01 21 1.02 21 0 21 C0 14.07 0 7.14 0 0 Z " fill="#8AC64D" transform="translate(622,137)"/>
<path d="M0 0 C4.04393484 3.09242076 4.04393484 3.09242076 4.4609375 5.83203125 C4.56658725 12.87886981 4.56658725 12.87886981 2.3125 16.6875 C-1.33965993 19.92227023 -4.96914181 20.01114426 -9.6484375 19.98828125 C-13.18187494 19.41177304 -14.74470568 17.3544396 -16.875 14.625 C-17.205 14.295 -17.535 13.965 -17.875 13.625 C-18.45250191 9.04285372 -18.48077083 5.62765517 -16.0625 1.625 C-11.55095869 -2.49983777 -5.3178247 -2.54330746 0 0 Z M-13.4375 2.5625 C-15.18040415 6.27564363 -15.0554607 8.63477947 -14.625 12.63671875 C-14.03753897 14.77370276 -14.03753897 14.77370276 -12.03125 15.87109375 C-8.81249778 16.99649081 -6.25388052 16.98702291 -2.875 16.625 C-0.27185006 15.2719872 -0.27185006 15.2719872 1.125 12.625 C1.92341448 8.60823437 1.74397146 5.6566191 -0.375 2.125 C-4.9486539 -0.61919234 -9.15747325 -0.67361778 -13.4375 2.5625 Z " fill="#8AC64D" transform="translate(613.875,138.375)"/>
<path d="M0 0 C1.7421875 1.09765625 1.7421875 1.09765625 3 3 C3.29296875 6.13671875 3.29296875 6.13671875 3.1875 9.6875 C3.16042969 10.86699219 3.13335937 12.04648438 3.10546875 13.26171875 C3.07066406 14.16535156 3.03585937 15.06898438 3 16 C1.04196493 16.05389087 -0.91648909 16.09274217 -2.875 16.125 C-4.51082031 16.15980469 -4.51082031 16.15980469 -6.1796875 16.1953125 C-9 16 -9 16 -11 14 C-10.75 10.4375 -10.75 10.4375 -10 7 C-6.78548731 5.39274365 -3.56387464 5.94251815 0 6 C-0.33 4.68 -0.66 3.36 -1 2 C-5.455 2.495 -5.455 2.495 -10 3 C-10 2.34 -10 1.68 -10 1 C-6.88450128 -0.55774936 -3.3955612 -0.56480622 0 0 Z " fill="#75BC2E" transform="translate(474,142)"/>
<path d="M0 0 C1.32 0 2.64 0 4 0 C4 2.31 4 4.62 4 7 C6.97851562 6.90234375 6.97851562 6.90234375 9.95703125 6.8046875 C12 7 12 7 15 9 C15.29296875 12.2578125 15.29296875 12.2578125 15.1875 16.125 C15.16042969 17.40632813 15.13335937 18.68765625 15.10546875 20.0078125 C15.07066406 20.99523437 15.03585937 21.98265625 15 23 C14.01 23 13.02 23 12 23 C11.67 18.71 11.34 14.42 11 10 C8.03 9.505 8.03 9.505 5 9 C4.67 13.62 4.34 18.24 4 23 C2.68 23 1.36 23 0 23 C0 15.41 0 7.82 0 0 Z " fill="#9BCF68" transform="translate(444,135)"/>
<path d="M0 0 C0.77085937 -0.01417969 1.54171875 -0.02835938 2.3359375 -0.04296875 C4.84334888 0.20948393 6.45761902 0.93556533 8.625 2.1875 C8.625 2.8475 8.625 3.5075 8.625 4.1875 C7.305 4.1875 5.985 4.1875 4.625 4.1875 C4.625 3.5275 4.625 2.8675 4.625 2.1875 C-1.05925885 2.23963143 -1.05925885 2.23963143 -5.375 5.375 C-6.49715334 8.53105627 -6.67068272 10.86106937 -6.375 14.1875 C-6.045 14.8475 -5.715 15.5075 -5.375 16.1875 C-1.90174819 17.3452506 0.98567448 17.25616652 4.625 17.1875 C4.955 14.8775 5.285 12.5675 5.625 10.1875 C6.615 10.1875 7.605 10.1875 8.625 10.1875 C8.625 13.4875 8.625 16.7875 8.625 20.1875 C4.15951501 21.30387125 0.20080038 21.79923802 -4.375 21.1875 C-7.24529869 19.39356332 -8.86631638 18.20486724 -10.375 15.1875 C-10.93012815 10.55536507 -11.0114242 7.20577873 -8.5 3.1875 C-5.55269608 0.4135669 -3.94815297 0.03279197 0 0 Z " fill="#84C344" transform="translate(510.375,136.8125)"/>
<path d="M0 0 C0.99 0 1.98 0 3 0 C3 4.62 3 9.24 3 14 C4.175625 12.824375 4.175625 12.824375 5.375 11.625 C6.91666667 10.08333333 8.45833333 8.54166667 10 7 C12.125 7.375 12.125 7.375 14 8 C13.319375 8.5775 12.63875 9.155 11.9375 9.75 C9.77322443 11.75020684 9.77322443 11.75020684 10.0625 13.9375 C11.18892818 16.41564199 12.59145128 18.67283255 14 21 C14 21.66 14 22.32 14 23 C11.76224708 21.99686938 10.1492612 21.15523165 8.4375 19.375 C6.97021721 17.65438868 6.97021721 17.65438868 4 18 C3.67 19.65 3.34 21.3 3 23 C2.01 23 1.02 23 0 23 C0 15.41 0 7.82 0 0 Z " fill="#90C956" transform="translate(263,135)"/>
<path d="M0 0 C0.99 0 1.98 0 3 0 C3.33 3.96 3.66 7.92 4 12 C5.98 12 7.96 12 10 12 C10.33 8.04 10.66 4.08 11 0 C12.32 0 13.64 0 15 0 C15 5.28 15 10.56 15 16 C5.0390625 16.29296875 5.0390625 16.29296875 2 16 C-0.42130331 12.36804504 -0.21022785 10.61650652 -0.125 6.3125 C-0.09792969 4.54326172 -0.09792969 4.54326172 -0.0703125 2.73828125 C-0.04710937 1.83464844 -0.02390625 0.93101562 0 0 Z " fill="#92CA59" transform="translate(339,142)"/>
<path d="M0 0 C10.21800948 -0.36492891 10.21800948 -0.36492891 13.34375 1.09375 C15.78413363 3.90249342 15.39458387 6.0367573 15.25 9.6875 C15.21390625 10.86699219 15.1778125 12.04648438 15.140625 13.26171875 C15.07101562 14.61716797 15.07101562 14.61716797 15 16 C14.01 16 13.02 16 12 16 C11.93941406 15.14535156 11.87882813 14.29070312 11.81640625 13.41015625 C11.73261719 12.30542969 11.64882813 11.20070312 11.5625 10.0625 C11.48128906 8.96035156 11.40007813 7.85820312 11.31640625 6.72265625 C11.29581916 4.08890097 11.29581916 4.08890097 10 3 C7.5 2.83333333 7.5 2.83333333 5 3 C3.18884044 4.81115956 3.61800552 7.61278227 3.4375 10.0625 C3.31181641 11.71958984 3.31181641 11.71958984 3.18359375 13.41015625 C3.12300781 14.26480469 3.06242188 15.11945313 3 16 C2.01 16 1.02 16 0 16 C0 10.72 0 5.44 0 0 Z " fill="#81C23F" transform="translate(550,142)"/>
<path d="M0 0 C0.99 0.33 1.98 0.66 3 1 C3.01458252 2.05388916 3.02916504 3.10777832 3.04418945 4.19360352 C3.10244945 8.12818213 3.17967904 12.06220493 3.26245117 15.99633789 C3.29557083 17.69448786 3.32364261 19.39274448 3.34643555 21.09106445 C3.38022169 23.54163787 3.43254639 25.99124531 3.48828125 28.44140625 C3.49467117 29.19273331 3.5010611 29.94406036 3.50764465 30.71815491 C3.64852533 35.84415444 4.76001559 39.38603945 7 44 C7.33 44.99 7.66 45.98 8 47 C4.24033117 45.74677706 3.86850027 44.5605772 1.9375 41.1875 C1.43089844 40.31480469 0.92429687 39.44210938 0.40234375 38.54296875 C-0.78797902 36.38447258 -1.92062656 34.21555602 -3 32 C-4.32 33.98 -5.64 35.96 -7 38 C-7.66 37.67 -8.32 37.34 -9 37 C-6.75216109 31.82620318 -4.83454463 28.22302975 0 25 C0 28.3 0 31.6 0 35 C0.66 35 1.32 35 2 35 C1.88188019 30.33673618 1.75764134 25.6736912 1.62768555 21.01074219 C1.58432759 19.42387343 1.54265313 17.83695776 1.50268555 16.25 C1.44500368 13.97121021 1.38130362 11.69265678 1.31640625 9.4140625 C1.29969376 8.70255035 1.28298126 7.99103821 1.26576233 7.25796509 C1.20278063 3.50339183 1.20278063 3.50339183 0 0 Z " fill="#A1D16F" transform="translate(100,109)"/>
<path d="M0 0 C2 3 2 3 1.6875 6.625 C1 10 1 10 0 11 C-3.4375 11.1875 -3.4375 11.1875 -7 11 C-9 9 -9 9 -9.3125 6.0625 C-9 3 -9 3 -7.875 1.125 C-5.13083761 -0.52149743 -3.1305429 -0.39964378 0 0 Z " fill="#F1F8EB" transform="translate(580,144)"/>
<path d="M0 0 C10.21800948 -0.36492891 10.21800948 -0.36492891 13.34375 1.09375 C15.78413363 3.90249342 15.39458387 6.0367573 15.25 9.6875 C15.21390625 10.86699219 15.1778125 12.04648438 15.140625 13.26171875 C15.07101562 14.61716797 15.07101562 14.61716797 15 16 C14.01 16 13.02 16 12 16 C11.93941406 15.14535156 11.87882812 14.29070312 11.81640625 13.41015625 C11.73261719 12.30542969 11.64882813 11.20070312 11.5625 10.0625 C11.48128906 8.96035156 11.40007812 7.85820312 11.31640625 6.72265625 C11.29581916 4.08890097 11.29581916 4.08890097 10 3 C7.54190002 2.7499227 7.54190002 2.7499227 5 3 C2.41073669 5.58926331 2.62601957 7.02705279 2.375 10.625 C2.30023438 11.62789062 2.22546875 12.63078125 2.1484375 13.6640625 C2.09945313 14.43492187 2.05046875 15.20578125 2 16 C1.34 16 0.68 16 0 16 C0 10.72 0 5.44 0 0 Z " fill="#72BA28" transform="translate(359,142)"/>
<path d="M0 0 C1.32 0 2.64 0 4 0 C4 1.32 4 2.64 4 4 C5.32 4 6.64 4 8 4 C8 4.66 8 5.32 8 6 C6.68 6 5.36 6 4 6 C4 9.96 4 13.92 4 18 C5.32 18 6.64 18 8 18 C8 18.66 8 19.32 8 20 C4.28400809 20.20086443 3.22791555 20.1519437 0 18 C-0.29296875 15.3984375 -0.29296875 15.3984375 -0.1875 12.375 C-0.16042969 11.37210938 -0.13335937 10.36921875 -0.10546875 9.3359375 C-0.05326172 8.17964844 -0.05326172 8.17964844 0 7 C-0.66 7 -1.32 7 -2 7 C-2 5.68 -2 4.36 -2 3 C-1.34 3 -0.68 3 0 3 C0 2.01 0 1.02 0 0 Z " fill="#95CC5E" transform="translate(481,138)"/>
<path d="M0 0 C3 -0.3125 3 -0.3125 6 0 C8 2 8 2 8.1953125 3.9453125 C8.13020833 5.96354167 8.06510417 7.98177083 8 10 C5.23749964 11.38125018 3.05268901 11.19079306 0 11 C-2 9 -2 9 -2.25 6.0625 C-2 3 -2 3 0 0 Z " fill="#F4FAEF" transform="translate(527,144)"/>
<path d="M0 0 C0.99 0 1.98 0 3 0 C3 5.94 3 11.88 3 18 C6.63 18 10.26 18 14 18 C14 18.99 14 19.98 14 21 C9.38 21 4.76 21 0 21 C0 14.07 0 7.14 0 0 Z " fill="#8AC64D" transform="translate(210,137)"/>
<path d="M0 0 C0.94875 0.04125 1.8975 0.0825 2.875 0.125 C4.72151134 3.24098788 5.25579379 5.50745897 4.875 9.125 C2.875 11.125 2.875 11.125 -0.125 11.375 C-3.125 11.125 -3.125 11.125 -5.125 9.125 C-5.375 5.625 -5.375 5.625 -5.125 2.125 C-3.125 0.125 -3.125 0.125 0 0 Z " fill="#F4FAEF" transform="translate(327.125,143.875)"/>
<path d="M0 0 C2 2 2 2 2.25 5 C2 8 2 8 0 10 C-3.5625 10.1875 -3.5625 10.1875 -7 10 C-8 9 -8 9 -8.09765625 7.15234375 C-8.06510417 5.1015625 -8.03255208 3.05078125 -8 1 C-5.23749964 -0.38125018 -3.05268901 -0.19079306 0 0 Z " fill="#F8FBF4" transform="translate(388,145)"/>
<path d="M0 0 C3 0.1875 3 0.1875 5 1.1875 C5.09765625 7.33984375 5.09765625 7.33984375 5 9.1875 C4 10.1875 4 10.1875 1.125 10.375 C-2 10.1875 -2 10.1875 -5 8.1875 C-5.3125 5.1875 -5.3125 5.1875 -5 2.1875 C-3 0.1875 -3 0.1875 0 0 Z " fill="#F8FBF4" transform="translate(251,144.8125)"/>
<path d="M0 0 C1.4540625 0.0309375 1.4540625 0.0309375 2.9375 0.0625 C4.56401522 3.31553044 4.05203156 6.45475602 3.9375 10.0625 C2.9375 11.0625 2.9375 11.0625 0 11.25 C-3.0625 11.0625 -3.0625 11.0625 -5.0625 9.0625 C-5.07941537 6.30529442 -4.53966181 3.79533582 -4.0625 1.0625 C-3.0625 0.0625 -3.0625 0.0625 0 0 Z " fill="#F8FBF5" transform="translate(233.0625,143.9375)"/>
<path d="M0 0 C2.475 0.99 2.475 0.99 5 2 C4.01 2.495 4.01 2.495 3 3 C3.474375 3.9075 3.94875 4.815 4.4375 5.75 C6.7224352 10.50266521 7.12391095 14.05323984 7.11352539 19.32910156 C7.11344986 20.61012756 7.11337433 21.89115356 7.11329651 23.21099854 C7.10819026 24.60420775 7.10297427 25.99741657 7.09765625 27.390625 C7.09579032 28.81980337 7.09436724 30.24898238 7.09336853 31.67816162 C7.08955715 35.43300148 7.07973867 39.18780243 7.06866455 42.94262695 C7.05842075 46.77685012 7.05386455 50.61107959 7.04882812 54.4453125 C7.03811514 61.96355937 7.02105531 69.48177423 7 77 C6.67 77 6.34 77 6 77 C5.99635437 76.23515793 5.99270874 75.47031586 5.98895264 74.68229675 C5.95088998 67.43038618 5.89383332 60.17897903 5.81609726 52.92739391 C5.7767962 49.20035884 5.74452369 45.47355388 5.72900391 41.74633789 C5.71372129 38.14095811 5.67907532 34.53621173 5.63169098 30.9311161 C5.61699543 29.5642584 5.60896587 28.1973102 5.60811615 26.83037376 C5.59717746 18.04688119 4.51906768 11.05360711 1 3 C0.67 2.01 0.34 1.02 0 0 Z " fill="#B8CADD" transform="translate(159,57)"/>
<path d="M0 0 C0.33 0.66 0.66 1.32 1 2 C2.98 2 4.96 2 7 2 C7.33 2.66 7.66 3.32 8 4 C10.01669827 5.13350534 10.01669827 5.13350534 12 6 C12 6.66 12 7.32 12 8 C6.39 8 0.78 8 -5 8 C-5 7.34 -5 6.68 -5 6 C-5.66 5.67 -6.32 5.34 -7 5 C-6.030625 4.54625 -5.06125 4.0925 -4.0625 3.625 C-0.92920418 2.34213779 -0.92920418 2.34213779 0 0 Z " fill="#E1F0D1" transform="translate(73,154)"/>
<path d="M0 0 C1.32 0 2.64 0 4 0 C4.67260351 1.76858691 5.33788395 3.53996016 6 5.3125 C6.37125 6.29863281 6.7425 7.28476563 7.125 8.30078125 C8 11 8 11 8 14 C8.66 14 9.32 14 10 14 C10 14.99 10 15.98 10 17 C9.01 17 8.02 17 7 17 C7 17.99 7 18.98 7 20 C10.08759559 19.35932024 10.08759559 19.35932024 10.94921875 17.15234375 C11.31466797 16.05599609 11.31466797 16.05599609 11.6875 14.9375 C11.93886719 14.20402344 12.19023437 13.47054687 12.44921875 12.71484375 C12.63097656 12.14894531 12.81273437 11.58304688 13 11 C14.27351308 13.54702616 13.80191925 14.4282945 13.0625 17.125 C12.86785156 17.84945312 12.67320312 18.57390625 12.47265625 19.3203125 C12.31667969 19.87460938 12.16070312 20.42890625 12 21 C10.02 21 8.04 21 6 21 C5.34 17.04 4.68 13.08 4 9 C3.34 9 2.68 9 2 9 C1.34 6.03 0.68 3.06 0 0 Z " fill="#8AC64E" transform="translate(410,137)"/>
<path d="M0 0 C0.33 0 0.66 0 1 0 C1 7.26 1 14.52 1 22 C-2.63 22 -6.26 22 -10 22 C-13 19 -13 19 -13.29296875 16.73828125 C-13.25816406 15.93777344 -13.22335937 15.13726562 -13.1875 14.3125 C-13.16042969 13.50425781 -13.13335937 12.69601563 -13.10546875 11.86328125 C-13.07066406 11.24839844 -13.03585937 10.63351563 -13 10 C-12.67 10 -12.34 10 -12 10 C-11.34 12.64 -10.68 15.28 -10 18 C-7.66705225 18.04241723 -5.33297433 18.04092937 -3 18 C-1.76732652 16.99163938 -1.76732652 16.99163938 -1.90234375 14.93359375 C-1.91394531 14.10988281 -1.92554688 13.28617188 -1.9375 12.4375 C-1.94652344 11.61121094 -1.95554687 10.78492188 -1.96484375 9.93359375 C-1.97644531 9.29550781 -1.98804688 8.65742188 -2 8 C-1.34 8 -0.68 8 0 8 C0 5.36 0 2.72 0 0 Z " fill="#90C957" transform="translate(391,136)"/>
<path d="M0 0 C0.125 5.75 0.125 5.75 -1 8 C-4.3 8 -7.6 8 -11 8 C-10.74438677 5.6568787 -10.40729228 3.32156597 -10 1 C-6.78548731 -0.60725635 -3.56387464 -0.05748185 0 0 Z " fill="#94CB5C" transform="translate(474,148)"/>
<path d="M0 0 C3.63 0 7.26 0 11 0 C11 5.61 11 11.22 11 17 C10.34 17 9.68 17 9 17 C9 16.01 9 15.02 9 14 C8.01 14 7.02 14 6 14 C6.08378906 13.37351563 6.16757812 12.74703125 6.25390625 12.1015625 C6.35574219 11.28429687 6.45757813 10.46703125 6.5625 9.625 C6.66691406 8.81289062 6.77132812 8.00078125 6.87890625 7.1640625 C7.18237328 4.95100814 7.18237328 4.95100814 6 3 C3.67843403 2.59270772 1.3431213 2.25561323 -1 2 C-0.67 1.34 -0.34 0.68 0 0 Z " fill="#87C549" transform="translate(574,142)"/>
<path d="M0 0 C2.0625 1.6875 2.0625 1.6875 3.0625 4.6875 C3.19031786 7.36144964 3.10641871 10.00845857 3.0625 12.6875 C2.7325 12.6875 2.4025 12.6875 2.0625 12.6875 C1.63932292 10.66927083 1.21614583 8.65104167 0.79296875 6.6328125 C0.13941162 4.31703451 0.13941162 4.31703451 -2.9375 2.6875 C-2.9375 2.0275 -2.9375 1.3675 -2.9375 0.6875 C-8.53123338 0.76832531 -8.53123338 0.76832531 -12.8125 3.75 C-13.18375 4.389375 -13.555 5.02875 -13.9375 5.6875 C-14.5975 5.6875 -15.2575 5.6875 -15.9375 5.6875 C-15.9375 7.9975 -15.9375 10.3075 -15.9375 12.6875 C-16.2675 12.6875 -16.5975 12.6875 -16.9375 12.6875 C-17.01871924 11.08417209 -17.07679134 9.47965974 -17.125 7.875 C-17.15980469 6.98167969 -17.19460938 6.08835938 -17.23046875 5.16796875 C-16.9375 2.6875 -16.9375 2.6875 -15.61328125 0.92578125 C-11.01031685 -2.47547682 -5.00042098 -2.23423065 0 0 Z " fill="#7DC03A" transform="translate(613.9375,138.3125)"/>
<path d="M0 0 C0.99 0 1.98 0 3 0 C3.33 2.31 3.66 4.62 4 7 C3.34 7 2.68 7 2 7 C-0.18326108 11.27113698 -2.31326082 15.50202887 -4 20 C-4.99 20 -5.98 20 -7 20 C-7 19.01 -7 18.02 -7 17 C-6.01 17 -5.02 17 -4 17 C-4.0825 16.05125 -4.165 15.1025 -4.25 14.125 C-4.29215976 8.99204922 -2.07385016 4.60135505 0 0 Z " fill="#9CCF69" transform="translate(424,137)"/>
<path d="M0 0 C2.64 0 5.28 0 8 0 C8 0.66 8 1.32 8 2 C7.03320312 2.30550781 7.03320312 2.30550781 6.046875 2.6171875 C3.68846128 3.8667935 3.68846128 3.8667935 3.390625 6.8203125 C3.34421875 7.91085938 3.2978125 9.00140625 3.25 10.125 C3.19328125 11.22070312 3.1365625 12.31640625 3.078125 13.4453125 C3.05234375 14.28835937 3.0265625 15.13140625 3 16 C2.01 16 1.02 16 0 16 C0 10.72 0 5.44 0 0 Z " fill="#86C447" transform="translate(309,142)"/>
<path d="M0 0 C1.4540625 0.0309375 1.4540625 0.0309375 2.9375 0.0625 C3.5975 1.7125 4.2575 3.3625 4.9375 5.0625 C2.83344609 5.23058419 0.72925242 5.39691948 -1.375 5.5625 C-2.54675781 5.6553125 -3.71851563 5.748125 -4.92578125 5.84375 C-6.967694 5.98614989 -9.0156279 6.0625 -11.0625 6.0625 C-11.0625 5.0725 -11.0625 4.0825 -11.0625 3.0625 C-9.928125 2.753125 -8.79375 2.44375 -7.625 2.125 C-0.5367268 0.01095361 -0.5367268 0.01095361 0 0 Z " fill="#DEE7F0" transform="translate(237.0625,93.9375)"/>
<path d="M0 0 C7.68421053 -0.29554656 7.68421053 -0.29554656 11 2 C12.49297212 4.98594424 12.11755228 7.70853624 12 11 C11.67 11.66 11.34 12.32 11 13 C10.34 13 9.68 13 9 13 C9 9.7 9 6.4 9 3 C7.1128125 2.938125 7.1128125 2.938125 5.1875 2.875 C4.47980469 2.85179687 3.77210938 2.82859375 3.04296875 2.8046875 C0.68640281 2.86745538 0.68640281 2.86745538 -2 5 C-1.34 3.35 -0.68 1.7 0 0 Z " fill="#8AC64D" transform="translate(229,142)"/>
<path d="M0 0 C0 0.66 0 1.32 0 2 C12.87 2 25.74 2 39 2 C39 2.33 39 2.66 39 3 C24.48 3 9.96 3 -5 3 C-5 2.34 -5 1.68 -5 1 C-2 0 -2 0 0 0 Z " fill="#9FD06E" transform="translate(25,158)"/>
<path d="M0 0 C0.66 0 1.32 0 2 0 C2 6.93 2 13.86 2 21 C0.68 20.67 -0.64 20.34 -2 20 C-2 18.68 -2 17.36 -2 16 C-1.34 16 -0.68 16 0 16 C0 10.72 0 5.44 0 0 Z " fill="#78BD32" transform="translate(638,137)"/>
<path d="M0 0 C0.66 0 1.32 0 2 0 C2 1.32 2 2.64 2 4 C4.97 4 7.94 4 11 4 C11.33 3.34 11.66 2.68 12 2 C12.33 2.99 12.66 3.98 13 5 C8.71 5 4.42 5 0 5 C-0.33 6.98 -0.66 8.96 -1 11 C-2.32 10.67 -3.64 10.34 -5 10 C-4.35699811 8.51960029 -3.71051501 7.04071218 -3.0625 5.5625 C-2.70285156 4.73878906 -2.34320313 3.91507813 -1.97265625 3.06640625 C-1 1 -1 1 0 0 Z " fill="#77BD2F" transform="translate(290,147)"/>
<path d="M0 0 C0.66 0 1.32 0 2 0 C2.33 0.99 2.66 1.98 3 3 C3.66 2.01 4.32 1.02 5 0 C5.37125 0.94875 5.7425 1.8975 6.125 2.875 C7.73995905 6.25553808 7.73995905 6.25553808 11.1875 7.375 C12.115625 7.58125 13.04375 7.7875 14 8 C14 8.66 14 9.32 14 10 C5.94 10.31 5.94 10.31 3 8 C0 2.85714286 0 2.85714286 0 0 Z " fill="#86C447" transform="translate(99,97)"/>
<path d="M0 0 C0.99 0.33 1.98 0.66 3 1 C4.04111729 3.94519277 4.43536684 6.91623428 5 10 C8.3 10.66 11.6 11.32 15 12 C15 12.33 15 12.66 15 13 C13.329375 13.2165625 13.329375 13.2165625 11.625 13.4375 C8.17857953 13.78372035 8.17857953 13.78372035 6 15 C0 9 0 9 -0.09765625 6.93359375 C-0.08605469 6.10988281 -0.07445312 5.28617188 -0.0625 4.4375 C-0.05347656 3.61121094 -0.04445313 2.78492188 -0.03515625 1.93359375 C-0.02355469 1.29550781 -0.01195312 0.65742188 0 0 Z " fill="#9ACE66" transform="translate(596,143)"/>
<path d="M0 0 C0.99 0 1.98 0 3 0 C3 3.3 3 6.6 3 10 C-0.8726592 10.9681648 -4.03611362 11.07622858 -8 11 C-8.33 10.34 -8.66 9.68 -9 9 C-6.36 9 -3.72 9 -1 9 C-0.67 6.03 -0.34 3.06 0 0 Z " fill="#88C54A" transform="translate(516,147)"/>
<path d="M0 0 C0.99 0 1.98 0 3 0 C3 5.28 3 10.56 3 16 C2.01 16 1.02 16 0 16 C0 10.72 0 5.44 0 0 Z " fill="#89C64C" transform="translate(542,142)"/>
<path d="M0 0 C0 0.99 0 1.98 0 3 C-0.94875 2.95875 -1.8975 2.9175 -2.875 2.875 C-6.10244856 2.65026182 -6.10244856 2.65026182 -8 5 C-8.24212873 6.98128508 -8.24212873 6.98128508 -8.125 9.125 C-8.063125 11.043125 -8.063125 11.043125 -8 13 C-8.99 12.67 -9.98 12.34 -11 12 C-11.08131463 10.56344146 -11.13933559 9.1255517 -11.1875 7.6875 C-11.22230469 6.88699219 -11.25710937 6.08648437 -11.29296875 5.26171875 C-11 3 -11 3 -9.75 1.21875 C-6.66322536 -0.93096805 -3.66205194 -0.18010091 0 0 Z " fill="#7CBF38" transform="translate(255,142)"/>
<path d="M0 0 C0.33 0 0.66 0 1 0 C1 5.28 1 10.56 1 16 C0.34 16 -0.32 16 -1 16 C-1.33 16.66 -1.66 17.32 -2 18 C-7 12.375 -7 12.375 -7 9 C-3.38144425 9.62388892 -2.8290723 10.1709277 0 13 C0 8.71 0 4.42 0 0 Z " fill="#98CD62" transform="translate(637,137)"/>
<path d="M0 0 C1.32 0.66 2.64 1.32 4 2 C4 6.29 4 10.58 4 15 C3.01 15 2.02 15 1 15 C0.83179449 13.06263299 0.66548905 11.12510094 0.5 9.1875 C0.4071875 8.10855469 0.314375 7.02960938 0.21875 5.91796875 C0 3 0 3 0 0 Z " fill="#82C342" transform="translate(561,143)"/>
<path d="M0 0 C2.375 -0.125 2.375 -0.125 5 0 C7 2 7 2 7 5 C2.38 5.33 -2.24 5.66 -7 6 C-7 5.34 -7 4.68 -7 4 C-6.030625 3.71125 -5.06125 3.4225 -4.0625 3.125 C-0.89335797 2.35785318 -0.89335797 2.35785318 0 0 Z " fill="#EBF0F6" transform="translate(344,94)"/>
<path d="M0 0 C3 0.125 3 0.125 4 1.125 C4.04063832 2.79117115 4.042721 4.45888095 4 6.125 C1.36 6.125 -1.28 6.125 -4 6.125 C-4.042721 4.45888095 -4.04063832 2.79117115 -4 1.125 C-3 0.125 -3 0.125 0 0 Z " fill="#346DA4" transform="translate(290,80.875)"/>
<path d="M0 0 C0.33 0 0.66 0 1 0 C1.66 1.98 2.32 3.96 3 6 C7.14093698 6.20970559 7.14093698 6.20970559 11 5 C10.67 6.65 10.34 8.3 10 10 C2.6971831 10.35915493 2.6971831 10.35915493 -0.0625 8.9375 C-1.55238061 5.8584134 -0.67482518 3.25143042 0 0 Z " fill="#90C956" transform="translate(321,148)"/>
<path d="M0 0 C0.66 1.32 1.32 2.64 2 4 C-3.32516617 8.41875491 -7.09415557 9.82774538 -14 10 C-13.67 9.34 -13.34 8.68 -13 8 C-12.13375 7.7525 -11.2675 7.505 -10.375 7.25 C-6.06589307 5.65403447 -3.31004786 3.11418704 0 0 Z " fill="#3D73A8" transform="translate(128,103)"/>
<path d="M0 0 C0.33 3.96 0.66 7.92 1 12 C-1.51083114 10.74458443 -1.87125446 9.49936512 -3 7 C-4.32 8.98 -5.64 10.96 -7 13 C-7.66 12.67 -8.32 12.34 -9 12 C-3.52427184 0 -3.52427184 0 0 0 Z " fill="#CFE8B7" transform="translate(100,134)"/>
<path d="M0 0 C0 1.32 0 2.64 0 4 C-4.455 4.495 -4.455 4.495 -9 5 C-9.33 3.68 -9.66 2.36 -10 1 C-6.78548731 -0.60725635 -3.56387464 -0.05748185 0 0 Z " fill="#ECF1F6" transform="translate(351,105)"/>
<path d="M0 0 C-0.66 0 -1.32 0 -2 0 C-2.2475 0.5775 -2.495 1.155 -2.75 1.75 C-4.18299988 4.32939979 -5.78424676 6.06121592 -8 8 C-8.66 8 -9.32 8 -10 8 C-10 8.99 -10 9.98 -10 11 C-10.66 11 -11.32 11 -12 11 C-10.8141763 7.62496331 -9.72426311 5.35277269 -7 3 C-8.65 3.33 -10.3 3.66 -12 4 C-9.07491676 -0.38762486 -5.0380608 -1.6793536 0 0 Z " fill="#DEEFCD" transform="translate(117,54)"/>
<path d="M0 0 C1.32 0.66 2.64 1.32 4 2 C3.67 2.33 3.34 2.66 3 3 C2.84019563 5.44608998 2.74070553 7.86731058 2.68359375 10.31640625 C2.66281265 11.04746078 2.64203156 11.77851532 2.62062073 12.53172302 C2.55504976 14.87521656 2.49620568 17.21882539 2.4375 19.5625 C2.39432192 21.14779855 2.35070787 22.73308529 2.30664062 24.31835938 C2.1993608 28.21212037 2.0981151 32.10599772 2 36 C1.67 36 1.34 36 1 36 C1 24.78 1 13.56 1 2 C0.34 1.67 -0.32 1.34 -1 1 C-0.67 0.67 -0.34 0.34 0 0 Z " fill="#DCEEC9" transform="translate(96,59)"/>
<path d="M0 0 C1.32 0.33 2.64 0.66 4 1 C3.38490238 3.64850284 2.75850592 6.29339905 2.125 8.9375 C1.95097656 9.69224609 1.77695312 10.44699219 1.59765625 11.22460938 C1.12755935 13.16593545 0.5695703 15.08549544 0 17 C-0.66 17.33 -1.32 17.66 -2 18 C-1.33333333 12 -0.66666667 6 0 0 Z " fill="#B6DB90" transform="translate(437,137)"/>
<path d="M0 0 C2.64 0 5.28 0 8 0 C8 1.32 8 2.64 8 4 C3.545 4.495 3.545 4.495 -1 5 C-0.67 3.35 -0.34 1.7 0 0 Z " fill="#EBF1F6" transform="translate(234,105)"/>
<path d="M0 0 C1.485 0.99 1.485 0.99 3 2 C3.29296875 5.0390625 3.29296875 5.0390625 3.1875 8.625 C3.16042969 9.81351563 3.13335937 11.00203125 3.10546875 12.2265625 C3.07066406 13.14179688 3.03585937 14.05703125 3 15 C2.01 15 1.02 15 0 15 C0 10.05 0 5.1 0 0 Z " fill="#93CB5B" transform="translate(371,143)"/>
<path d="M0 0 C0.66 0 1.32 0 2 0 C4.04169485 2.90548882 5 4.40142046 5 8 C2.69 8 0.38 8 -2 8 C-1.125 1.125 -1.125 1.125 0 0 Z " fill="#EDF6E4" transform="translate(295,142)"/>
<path d="M0 0 C1.7421875 1.09765625 1.7421875 1.09765625 3 3 C3.29296875 6.13671875 3.29296875 6.13671875 3.1875 9.6875 C3.16042969 10.86699219 3.13335937 12.04648438 3.10546875 13.26171875 C3.07066406 14.16535156 3.03585937 15.06898438 3 16 C2.67 16 2.34 16 2 16 C1.67 12.04 1.34 8.08 1 4 C0.34 4 -0.32 4 -1 4 C-1 3.34 -1 2.68 -1 2 C-5.455 2.495 -5.455 2.495 -10 3 C-10 2.34 -10 1.68 -10 1 C-6.88450128 -0.55774936 -3.3955612 -0.56480622 0 0 Z " fill="#92CA59" transform="translate(474,142)"/>
<path d="M0 0 C2 2 2 2 2 5 C2.66 5 3.32 5 4 5 C4 5.99 4 6.98 4 8 C3.01 8 2.02 8 1 8 C1 8.99 1 9.98 1 11 C4.08759559 10.35932024 4.08759559 10.35932024 4.94921875 8.15234375 C5.19285156 7.42144531 5.43648438 6.69054687 5.6875 5.9375 C5.93886719 5.20402344 6.19023437 4.47054687 6.44921875 3.71484375 C6.63097656 3.14894531 6.81273437 2.58304688 7 2 C8.27351308 4.54702616 7.80191925 5.4282945 7.0625 8.125 C6.86785156 8.84945312 6.67320312 9.57390625 6.47265625 10.3203125 C6.23869141 11.15175781 6.23869141 11.15175781 6 12 C4.02 12 2.04 12 0 12 C0 8.04 0 4.08 0 0 Z " fill="#B0D988" transform="translate(416,146)"/>
<path d="M0 0 C0.33 0 0.66 0 1 0 C1 7.26 1 14.52 1 22 C0.67 21.34 0.34 20.68 0 20 C-0.66 19.67 -1.32 19.34 -2 19 C-2 15.37 -2 11.74 -2 8 C-1.34 8 -0.68 8 0 8 C0 5.36 0 2.72 0 0 Z " fill="#74BC2C" transform="translate(391,136)"/>
<path d="M0 0 C0 0.66 0 1.32 0 2 C-1.670625 2.2784375 -1.670625 2.2784375 -3.375 2.5625 C-4.57125 3.036875 -5.7675 3.51125 -7 4 C-8.54086322 7.51400668 -8.54086322 7.51400668 -9 11 C-9.66 11 -10.32 11 -11 11 C-10.91291331 9.54054712 -10.80473093 8.08234132 -10.6875 6.625 C-10.62949219 5.81289062 -10.57148438 5.00078125 -10.51171875 4.1640625 C-9.25957174 -1.13127675 -4.3970958 -0.16592814 0 0 Z " fill="#7FC13C" transform="translate(330,142)"/>
<path d="M0 0 C0.33 0 0.66 0 1 0 C1 2.64 1 5.28 1 8 C1.66 8 2.32 8 3 8 C2.67 12.62 2.34 17.24 2 22 C1.34 22 0.68 22 0 22 C0 14.74 0 7.48 0 0 Z " fill="#77BD30" transform="translate(445,136)"/>
<path d="M0 0 C1.44086665 0.22980329 2.87982696 0.47367732 4.3125 0.75 C4.3125 1.08 4.3125 1.41 4.3125 1.75 C1.6725 2.08 -0.9675 2.41 -3.6875 2.75 C-3.625625 3.678125 -3.56375 4.60625 -3.5 5.5625 C-3.6875 8.75 -3.6875 8.75 -5.1875 10.625 C-5.93 11.181875 -5.93 11.181875 -6.6875 11.75 C-8.09207737 8.94084526 -7.93645157 6.86189466 -7.6875 3.75 C-6.05009508 -0.50725279 -4.16703644 -0.45208414 0 0 Z " fill="#A5D377" transform="translate(383.6875,143.25)"/>
<path d="M0 0 C4.875 4.75 4.875 4.75 6 7 C5.01 7.33 4.02 7.66 3 8 C2.01 7.01 1.02 6.02 0 5 C-0.33 9.62 -0.66 14.24 -1 19 C-1.33 19 -1.66 19 -2 19 C-2.05394705 16.39555652 -2.09364469 13.79223002 -2.125 11.1875 C-2.14175781 10.44951172 -2.15851562 9.71152344 -2.17578125 8.95117188 C-2.21074628 5.08753574 -2.19397555 3.29096332 0 0 Z " fill="#83C343" transform="translate(626,139)"/>
<path d="M0 0 C1.32 0 2.64 0 4 0 C4 1.32 4 2.64 4 4 C5.32 4 6.64 4 8 4 C8 4.66 8 5.32 8 6 C4.7 6 1.4 6 -2 6 C-2 5.01 -2 4.02 -2 3 C-1.34 3 -0.68 3 0 3 C0 2.01 0 1.02 0 0 Z " fill="#8AC64E" transform="translate(481,138)"/>
<path d="M0 0 C0.33 0 0.66 0 1 0 C1.05827558 3.5624308 1.09368885 7.12473819 1.125 10.6875 C1.14175781 11.69490234 1.15851563 12.70230469 1.17578125 13.74023438 C1.18222656 14.71669922 1.18867188 15.69316406 1.1953125 16.69921875 C1.20578613 17.59471436 1.21625977 18.49020996 1.22705078 19.4128418 C0.97703456 22.26168257 0.18016512 24.40894543 -1 27 C-1.66 27 -2.32 27 -3 27 C-2.09827747 22.36256983 -2.09827747 22.36256983 -1.48461914 20.09863281 C-0.98212686 17.92260076 -0.79504412 15.90088235 -0.68359375 13.671875 C-0.64169922 12.87265625 -0.59980469 12.0734375 -0.55664062 11.25 C-0.49766602 10.0125 -0.49766602 10.0125 -0.4375 8.75 C-0.39431641 7.90953125 -0.35113281 7.0690625 -0.30664062 6.203125 C-0.20091457 4.13559329 -0.09998705 2.06781719 0 0 Z " fill="#1B5B99" transform="translate(132,78)"/>
<path d="M0 0 C0 0.33 0 0.66 0 1 C-0.80824219 1.01417969 -1.61648437 1.02835937 -2.44921875 1.04296875 C-9.22287225 1.27996999 -9.22287225 1.27996999 -15.1875 4.1875 C-17.15055916 7.23362628 -17.74933496 9.40713448 -18 13 C-18.33 13 -18.66 13 -19 13 C-19.3546443 9.92641609 -19.46968094 7.06611943 -19 4 C-14.10919923 -1.72922375 -6.99482821 -0.373611 0 0 Z " fill="#5D8AB6" transform="translate(242,99)"/>
<path d="M0 0 C0.33 0.99 0.66 1.98 1 3 C-2.63 3 -6.26 3 -10 3 C-10 2.34 -10 1.68 -10 1 C-6.42181037 -1.33958553 -4.07775191 -0.9267618 0 0 Z " fill="#8AC64D" transform="translate(81,158)"/>
<path d="M0 0 C-0.33 1.98 -0.66 3.96 -1 6 C-1.33 6 -1.66 6 -2 6 C-2 4.35 -2 2.7 -2 1 C-6.03384128 3.07143201 -7.92856799 4.96615872 -10 9 C-10.66 8.67 -11.32 8.34 -12 8 C-8.97418955 0.43547387 -8.08396784 -0.14970311 0 0 Z " fill="#5181B1" transform="translate(281,89)"/>
<path d="M0 0 C0.33 0 0.66 0 1 0 C1 4.62 1 9.24 1 14 C1.66 14 2.32 14 3 14 C2.67 16.64 2.34 19.28 2 22 C1.34 22 0.68 22 0 22 C0 14.74 0 7.48 0 0 Z " fill="#78BE32" transform="translate(264,136)"/>
<path d="M0 0 C0.66 0 1.32 0 2 0 C2.33 4.62 2.66 9.24 3 14 C2.34 14 1.68 14 1 14 C1 12.68 1 11.36 1 10 C0.01 10 -0.98 10 -2 10 C-2 8.68 -2 7.36 -2 6 C-1.34 6 -0.68 6 0 6 C0 4.02 0 2.04 0 0 Z " fill="#E1F0D1" transform="translate(337,142)"/>
<path d="M0 0 C0 7.26 0 14.52 0 22 C-0.33 22 -0.66 22 -1 22 C-1.33 16.39 -1.66 10.78 -2 5 C-2.99 5.495 -2.99 5.495 -4 6 C-3.625 3.5625 -3.625 3.5625 -3 1 C-1 0 -1 0 0 0 Z " fill="#E9F4DD" transform="translate(444,136)"/>
<path d="M0 0 C0.33 0 0.66 0 1 0 C1.08131463 1.43655854 1.13933559 2.8744483 1.1875 4.3125 C1.22230469 5.11300781 1.25710938 5.91351563 1.29296875 6.73828125 C1 9 1 9 -0.3125 10.78125 C-2.81995612 12.59219053 -4.99920026 12.20005332 -8 12 C-8.33 11.34 -8.66 10.68 -9 10 C-6.69 10 -4.38 10 -2 10 C-1.34 6.7 -0.68 3.4 0 0 Z " fill="#7ABE34" transform="translate(536,146)"/>
<path d="M0 0 C0.680625 0.474375 1.36125 0.94875 2.0625 1.4375 C5.41841956 3.2225636 8.24161481 3.63153086 12 4 C12 4.33 12 4.66 12 5 C10.329375 5.2165625 10.329375 5.2165625 8.625 5.4375 C5.17857953 5.78372035 5.17857953 5.78372035 3 7 C1.35 5.35 -0.3 3.7 -2 2 C-1.34 2 -0.68 2 0 2 C0 1.34 0 0.68 0 0 Z " fill="#9FD06E" transform="translate(503,151)"/>
<path d="M0 0 C0.66 0.33 1.32 0.66 2 1 C0.90033225 2.29549899 -0.20491801 3.58626071 -1.3125 4.875 C-1.92738281 5.59429688 -2.54226562 6.31359375 -3.17578125 7.0546875 C-5 9 -5 9 -8 11 C-6.68206814 5.33289301 -4.51290803 3.33562767 0 0 Z " fill="#8AC64D" transform="translate(62,9)"/>
<path d="M0 0 C0.66 0.33 1.32 0.66 2 1 C1.67 1.33 1.34 1.66 1 2 C4.63 2 8.26 2 12 2 C8.2632157 4.49118953 6.25548181 4.2065226 1.8125 4.125 C0.54019531 4.10695312 -0.73210937 4.08890625 -2.04296875 4.0703125 C-3.50669922 4.03550781 -3.50669922 4.03550781 -5 4 C-5 3.34 -5 2.68 -5 2 C-2.625 0.9375 -2.625 0.9375 0 0 Z " fill="#EFF2F6" transform="translate(138,162)"/>
<path d="M0 0 C3.3 0 6.6 0 10 0 C9.67 1.65 9.34 3.3 9 5 C8.34 5 7.68 5 7 5 C6.67 4.34 6.34 3.68 6 3 C3.67843403 2.59270772 1.3431213 2.25561323 -1 2 C-0.67 1.34 -0.34 0.68 0 0 Z " fill="#7ABF35" transform="translate(574,142)"/>
<path d="M0 0 C0.99 0 1.98 0 3 0 C3.33 2.31 3.66 4.62 4 7 C2.35 7.33 0.7 7.66 -1 8 C-1.125 2.25 -1.125 2.25 0 0 Z " fill="#7DC039" transform="translate(424,137)"/>
<path d="M0 0 C0.99 0.33 1.98 0.66 3 1 C1.625 3.5 1.625 3.5 0 6 C-0.66 6 -1.32 6 -2 6 C-2 8.31 -2 10.62 -2 13 C-2.33 13 -2.66 13 -3 13 C-3.08121924 11.39667209 -3.13929134 9.79215974 -3.1875 8.1875 C-3.22230469 7.29417969 -3.25710938 6.40085938 -3.29296875 5.48046875 C-2.95081002 2.58352485 -2.24606427 1.77444972 0 0 Z " fill="#84C344" transform="translate(600,138)"/>
<path d="M0 0 C1.98 0 3.96 0 6 0 C5.67 1.32 5.34 2.64 5 4 C3.02 4 1.04 4 -1 4 C-0.67 2.68 -0.34 1.36 0 0 Z " fill="#F8FBF4" transform="translate(467,151)"/>
<path d="M0 0 C1.85625 0.1546875 1.85625 0.1546875 3.75 0.3125 C3.75 0.6425 3.75 0.9725 3.75 1.3125 C2.1103125 1.7146875 2.1103125 1.7146875 0.4375 2.125 C-3.62767186 3.34176603 -3.62767186 3.34176603 -6.25 6.3125 C-6.97197162 8.91861077 -6.97197162 8.91861077 -7.25 11.3125 C-7.58 11.3125 -7.91 11.3125 -8.25 11.3125 C-8.58609819 7.69944442 -8.44511045 5.68646169 -6.75 2.4375 C-4.01112567 0.10945682 -3.41890388 0.00606189 0 0 Z " fill="#E0F0D0" transform="translate(607.25,138.6875)"/>
<path d="M0 0 C1.875 0.1875 1.875 0.1875 4 1 C5.25 3.5625 5.25 3.5625 6 6 C4.02 6.99 4.02 6.99 2 8 C0.74335022 5.09399739 0 3.20395416 0 0 Z " fill="#DCE5EF" transform="translate(169,135)"/>
<path d="M0 0 C3.3 0 6.6 0 10 0 C9.34 1.65 8.68 3.3 8 5 C5.36 5 2.72 5 0 5 C0 4.67 0 4.34 0 4 C2.31 4 4.62 4 7 4 C7 3.34 7 2.68 7 2 C4.69 2 2.38 2 0 2 C0 1.34 0 0.68 0 0 Z " fill="#E1F0D2" transform="translate(572,157)"/>
<path d="M0 0 C0.33 0.66 0.66 1.32 1 2 C2.98 2 4.96 2 7 2 C6.67 2.66 6.34 3.32 6 4 C3.375 4.5625 3.375 4.5625 0 5 C-1.27875 5.185625 -2.5575 5.37125 -3.875 5.5625 C-4.90625 5.706875 -5.9375 5.85125 -7 6 C-4.94766315 3.7522025 -3.99332739 2.9977758 -1 2 C-0.67 1.34 -0.34 0.68 0 0 Z " fill="#E7F3DA" transform="translate(73,154)"/>
<path d="M0 0 C0.66 1.65 1.32 3.3 2 5 C1.01 4.34 0.02 3.68 -1 3 C-3.80127043 2.79502899 -5.47454232 2.73727116 -8 4 C-8.33 3.01 -8.66 2.02 -9 1 C-6.04335481 -0.4783226 -3.25770263 -0.06032783 0 0 Z " fill="#7CBF38" transform="translate(370,142)"/>
<path d="M0 0 C0.66 0 1.32 0 2 0 C2.33 3.63 2.66 7.26 3 11 C2.01 11.66 1.02 12.32 0 13 C0 12.34 0 11.68 0 11 C-1.98 11 -3.96 11 -6 11 C-6 10.67 -6 10.34 -6 10 C-4.02 9.67 -2.04 9.34 0 9 C0 6.03 0 3.06 0 0 Z " fill="#B0D886" transform="translate(236,145)"/>
<path d="M0 0 C0 1.98 0 3.96 0 6 C-0.33 5.01 -0.66 4.02 -1 3 C-3.31 3.33 -5.62 3.66 -8 4 C-8 3.34 -8 2.68 -8 2 C-8.66 1.67 -9.32 1.34 -10 1 C-6.78548731 -0.60725635 -3.56387464 -0.05748185 0 0 Z " fill="#A3D374" transform="translate(474,148)"/>
<path d="M0 0 C1.20272819 2.40545638 1.10071472 3.94996953 1.0625 6.625 C1.05347656 7.44226563 1.04445313 8.25953125 1.03515625 9.1015625 C1.02355469 9.72804687 1.01195312 10.35453125 1 11 C0.01 10.67 -0.98 10.34 -2 10 C-2 7.03 -2 4.06 -2 1 C-1.34 0.67 -0.68 0.34 0 0 Z " fill="#7EC03B" transform="translate(502,142)"/>
<path d="M0 0 C6.75 -0.125 6.75 -0.125 9 1 C9 1.66 9 2.32 9 3 C7.01432292 2.93489583 5.02864583 2.86979167 3.04296875 2.8046875 C0.68640281 2.86745538 0.68640281 2.86745538 -2 5 C-1.34 3.35 -0.68 1.7 0 0 Z " fill="#78BE32" transform="translate(229,142)"/>
<path d="M0 0 C0.99 0.33 1.98 0.66 3 1 C2.525625 1.886875 2.05125 2.77375 1.5625 3.6875 C0.20262851 6.57042756 -0.54060386 8.87610623 -1 12 C-1.33 12 -1.66 12 -2 12 C-2 2 -2 2 0 0 Z " fill="#96CC60" transform="translate(504,138)"/>
<path d="M0 0 C1.6415049 3.2830098 0.51888624 6.42545033 0 10 C-1.32 9.67 -2.64 9.34 -4 9 C-2.68 6.03 -1.36 3.06 0 0 Z " fill="#99CD64" transform="translate(289,148)"/>
<path d="M0 0 C1.60031344 3.20062687 0.03173691 5.72271806 -1 9 C-1.99 8.67 -2.98 8.34 -4 8 C-4 6.35 -4 4.7 -4 3 C-3.34 3 -2.68 3 -2 3 C-1.34 2.01 -0.68 1.02 0 0 Z " fill="#D3E9BD" transform="translate(435,144)"/>
<path d="M0 0 C2.25 0.25 2.25 0.25 4 1 C3.38125 1.598125 2.7625 2.19625 2.125 2.8125 C-0.13676954 5.00811144 -0.13676954 5.00811144 -2 8 C-2 7.01 -2 6.02 -2 5 C-2.66 4.67 -3.32 4.34 -4 4 C-2.25 1.9375 -2.25 1.9375 0 0 Z " fill="#93CA5A" transform="translate(273,142)"/>
<path d="M0 0 C0.99 0 1.98 0 3 0 C3.33 1.32 3.66 2.64 4 4 C3.01 4 2.02 4 1 4 C0.34 5.65 -0.32 7.3 -1 9 C-2.60031344 5.79937313 -1.03173691 3.27728194 0 0 Z " fill="#7BBF37" transform="translate(294,137)"/>
<path d="M0 0 C0.66 0.33 1.32 0.66 2 1 C1.34 2.32 0.68 3.64 0 5 C-0.66 5 -1.32 5 -2 5 C-2.33 7.31 -2.66 9.62 -3 12 C-3.33 12 -3.66 12 -4 12 C-4.49230769 4.61538462 -4.49230769 4.61538462 -2 1.5 C-1.34 1.005 -0.68 0.51 0 0 Z " fill="#A1D16F" transform="translate(572,142)"/>
<path d="M0 0 C1.32 0.66 2.64 1.32 4 2 C4 6.29 4 10.58 4 15 C3.67 15 3.34 15 3 15 C2.67 11.04 2.34 7.08 2 3 C1.01 2.67 0.02 2.34 -1 2 C-0.67 1.34 -0.34 0.68 0 0 Z " fill="#96CD60" transform="translate(561,143)"/>
<path d="M0 0 C5 7.5 5 7.5 5 10 C1.00003714 8.66667905 0.16217663 6.5042173 -2 3 C-1 1 -1 1 0 0 Z " fill="#B9DD95" transform="translate(103,146)"/>
<path d="M0 0 C0.99 0.66 1.98 1.32 3 2 C2.34 4.31 1.68 6.62 1 9 C0.67 9 0.34 9 0 9 C0 7.02 0 5.04 0 3 C-2.31 2.67 -4.62 2.34 -7 2 C-7 1.67 -7 1.34 -7 1 C-5.5459375 1.0309375 -5.5459375 1.0309375 -4.0625 1.0625 C-1.12534105 1.35618499 -1.12534105 1.35618499 0 0 Z " fill="#AED885" transform="translate(256,143)"/>
<path d="M0 0 C0.53625 0.37125 1.0725 0.7425 1.625 1.125 C-2.20489106 2.92730168 -5.15621808 3.32122241 -9.375 3.125 C-8.375 1.125 -8.375 1.125 -5.5625 -0.125 C-2.375 -0.875 -2.375 -0.875 0 0 Z " fill="#83A5C7" transform="translate(123.375,109.875)"/>
<path d="M0 0 C3.63 0.66 7.26 1.32 11 2 C11 2.66 11 3.32 11 4 C3.57142857 4.28571429 3.57142857 4.28571429 0 2 C0 1.34 0 0.68 0 0 Z " fill="#C1E1A1" transform="translate(102,103)"/>
<path d="M0 0 C0.33 0 0.66 0 1 0 C1.268125 1.258125 1.53625 2.51625 1.8125 3.8125 C2.59532537 6.99448801 3.25335928 9.00244311 6 11 C1.125 10.125 1.125 10.125 0 9 C-0.07179964 7.48071962 -0.08392007 5.95832518 -0.0625 4.4375 C-0.05347656 3.61121094 -0.04445313 2.78492188 -0.03515625 1.93359375 C-0.02355469 1.29550781 -0.01195312 0.65742188 0 0 Z " fill="#7ABF35" transform="translate(378,146)"/>
<path d="M0 0 C0 2.64 0 5.28 0 8 C-0.99 7.67 -1.98 7.34 -3 7 C-3 5.02 -3 3.04 -3 1 C-1 0 -1 0 0 0 Z " fill="#D7EBC2" transform="translate(244,146)"/>
<path d="M0 0 C2.475 0.99 2.475 0.99 5 2 C4.01 2.495 4.01 2.495 3 3 C3.515625 3.94875 4.03125 4.8975 4.5625 5.875 C5.036875 6.90625 5.51125 7.9375 6 9 C5.67 9.66 5.34 10.32 5 11 C4.16151196 9.54462432 3.32936066 8.08559627 2.5 6.625 C1.80390625 5.40683594 1.80390625 5.40683594 1.09375 4.1640625 C0 2 0 2 0 0 Z " fill="#789DC1" transform="translate(159,57)"/>
<path d="M0 0 C-4.0271824 2.20536179 -7.43545749 3.45660208 -12 4 C-9.07491676 -0.38762486 -5.0380608 -1.6793536 0 0 Z " fill="#B5DB8F" transform="translate(117,54)"/>
<path d="M0 0 C1.2077558 3.62326739 0.54311128 4.64146369 -1 8 C-1.99 8 -2.98 8 -4 8 C-4 7.01 -4 6.02 -4 5 C-3.01 5 -2.02 5 -1 5 C-0.67 3.35 -0.34 1.7 0 0 Z " fill="#75BC2D" transform="translate(421,149)"/>
<path d="M0 0 C1.98 0 3.96 0 6 0 C6.33 1.32 6.66 2.64 7 4 C4.36 3.34 1.72 2.68 -1 2 C-0.67 1.34 -0.34 0.68 0 0 Z " fill="#78BD32" transform="translate(528,142)"/>
<path d="M0 0 C1.98 0.99 1.98 0.99 4 2 C3.67 2.99 3.34 3.98 3 5 C2.96079185 6.99961564 2.95556653 9.00049364 3 11 C2.67 11 2.34 11 2 11 C1.34 7.37 0.68 3.74 0 0 Z " fill="#9BCE67" transform="translate(330,142)"/>
<path d="M0 0 C0.99 0.33 1.98 0.66 3 1 C1.515 4.465 1.515 4.465 0 8 C-0.98120464 4.94736336 -0.98120464 3.05263664 0 0 Z " fill="#81C240" transform="translate(438,137)"/>
<path d="M0 0 C1.65 0 3.3 0 5 0 C5.33 0.99 5.66 1.98 6 3 C3.69 3 1.38 3 -1 3 C-0.67 2.01 -0.34 1.02 0 0 Z " fill="#C8D8E6" transform="translate(288,87)"/>
</svg>
